<svg width="512" height="433" viewBox="0 0 512 433" fill="none" xmlns="http://www.w3.org/2000/svg">
<path d="M78.8031 0.345203C82.2993 -0.109448 91.6121 0.0110328 95.3064 0.0239051L123.107 0.111444L219.906 0.0511992L421.131 0.0676746C451.266 0.108351 481.906 -0.167629 512 0.291142C506.068 28.0965 503.022 62.2206 489.119 87.1976C484.705 95.1244 477.928 103.042 470.771 108.62C458.896 117.873 444.351 123.912 431.309 131.36C393.831 152.765 325.158 193.152 302.863 229.642C296.233 240.493 294.928 254.069 292.33 266.305C286.602 293.284 281.385 320.382 275.49 347.323C272.587 360.595 270.331 374.901 265.295 387.545C262.406 394.795 257.917 401.875 252.757 407.719C228.233 435.507 198.041 432.845 164.299 432.758C141.33 432.696 116.181 431.62 93.5411 433C94.9349 425.174 96.9338 416.915 98.5186 409.047C102.3 389.749 106.218 370.478 110.274 351.236L141.227 201.926C143.556 191.323 145.648 180.668 147.505 169.972C152.888 178.632 160.527 188.297 166.465 196.895L215.449 267.785C220.254 262.242 227.22 255.691 232.576 250.5C243.247 240.06 254.126 229.835 265.207 219.83C284.335 202.283 304.924 182.974 325.15 166.731C341.085 153.935 359.974 140.676 376.563 128.707C410.061 104.539 446.249 83.1757 474.003 52.0838C479.122 46.352 484.561 40.5471 487.926 33.6053C481.165 37.5427 471.126 41.4559 463.882 44.3995C394.409 72.6286 323.941 98.9191 262.215 142.645C253.871 148.555 244.041 155.477 236.482 162.533C224.877 115.417 203.961 118.177 163.177 118.976L108.065 120.075C72.6278 121.028 35.5293 120.743 0 120.757C3.35777 107.726 6.19793 91.1705 9.19862 77.5907C13.7048 57.2024 13.9363 43.5474 28.1011 26.3087C40.817 10.8341 59.0851 2.29614 78.8031 0.345203Z" fill="#DC2227"/>
</svg>
