<svg width="212" height="48" viewBox="0 0 212 48" fill="none" xmlns="http://www.w3.org/2000/svg">
<path d="M9.11476 1.27528C9.84715 1.17585 12.6383 1.23441 13.523 1.23447L22.974 1.2378L54.3855 1.26237C53.9171 3.98479 53.3437 7.91603 51.9832 10.3609C50.5492 12.9377 47.2832 14.0775 44.7517 15.6004C40.717 18.0277 35.3228 21.1327 32.6298 25.075C31.9894 26.0127 31.6035 28.2735 31.3722 29.3948L29.7764 37.1421C29.5189 38.3426 29.1581 40.2527 28.7339 41.3263C28.3515 42.3194 27.7727 43.2255 27.0317 43.9908C24.3361 46.7234 20.4977 46.2856 16.9784 46.2704C14.8857 46.2559 12.7929 46.257 10.7003 46.2738C10.9554 45.3226 11.128 44.3771 11.3263 43.4143C12.7567 36.4702 14.1405 29.5068 15.6594 22.5813C15.8612 21.4018 16.1515 20.1243 16.3981 18.9439C16.7552 19.5565 17.3445 20.2974 17.7611 20.8904C19.6698 23.6069 21.5854 26.3016 23.4459 29.0521C27.178 25.3201 30.9912 21.9135 35.0036 18.4975C40.0829 14.1733 48.2073 10.315 51.9044 4.79147C42.7259 8.53407 33.5268 11.89 25.6584 18.0939C24.3981 13.251 22.3128 13.5167 18.061 13.5828C16.4066 13.5941 14.7525 13.6216 13.0986 13.6651C9.0512 13.7496 5.00286 13.7825 0.95459 13.7639C2.55587 8.29073 1.66216 2.26475 9.11476 1.27528Z" fill="white"/>
<path d="M124.211 17.6904C124.355 17.6744 124.499 17.6659 124.644 17.6646C130.275 17.6296 129.908 22.8307 129.886 26.7756C129.87 28.7551 129.867 30.7345 129.876 32.714C128.544 32.7256 127.211 32.726 125.878 32.7155L125.89 26.2228C125.893 24.9851 125.919 23.8697 125.792 22.6127C125.614 19.9815 121.616 20.1253 121.23 22.4966C121.029 23.7284 121.118 25.2975 121.124 26.5671L121.135 32.7217L117.229 32.737L117.219 25.5104C117.237 23.815 117.628 20.4969 114.932 20.6461C113.836 20.7068 113.089 21.3206 112.389 22.105C112.274 25.2275 112.327 29.5579 112.368 32.713C111.07 32.724 109.772 32.7216 108.473 32.7059L108.464 17.8933C110.583 17.8831 111.682 17.2345 112.036 19.7453C113.971 17.7294 116.753 16.5924 119.141 19.0983C119.402 19.3718 119.697 19.9566 119.894 20.2997C120.954 18.5717 122.248 17.9266 124.211 17.6904Z" fill="white"/>
<path fill-rule="evenodd" clip-rule="evenodd" d="M211.264 24.4716C210.801 20.2737 207.025 17.2361 202.813 17.6726C198.564 18.1127 195.486 21.917 195.953 26.151C196.42 30.3851 200.254 33.4313 204.497 32.94C208.704 32.4529 211.727 28.6697 211.264 24.4716ZM206.909 23.4046C206.591 21.3598 204.974 20.4155 202.979 20.6612C202.131 20.8774 201.155 21.3332 200.795 22.1701C199.453 25.2975 199.669 30.3145 204.209 30.0307C207.289 29.4254 207.294 25.8768 206.909 23.4046Z" fill="white"/>
<path fill-rule="evenodd" clip-rule="evenodd" d="M171.28 24.5772C170.88 20.3944 167.177 17.3135 162.978 17.6725C158.725 18.0362 155.585 21.79 155.99 26.0284C156.393 30.2669 160.187 33.3626 164.433 32.9195C168.624 32.4823 171.679 28.7599 171.28 24.5772ZM166.759 22.8518C166.322 21.0861 164.691 20.592 163.031 20.6626C162.176 20.8627 161.322 21.2254 160.938 22.0573C159.504 25.1533 159.754 30.5232 164.39 29.9903C167.419 29.0267 167.404 25.4558 166.759 22.8518Z" fill="white"/>
<path d="M171.983 17.8689C172.89 17.8586 175.023 17.6416 175.792 18.0504C176.421 18.3844 178.366 27.323 178.762 28.6578C179.127 27.001 179.853 24.954 180.34 23.2944C180.843 21.5786 181.36 19.5483 181.979 17.9028C182.834 17.8701 184.529 17.7407 185.23 18.1135C185.743 18.7732 188.174 27.4893 188.501 28.7379C188.829 27.1621 190.936 18.7706 191.514 18.0461C192.18 17.7098 194.348 17.889 195.18 17.9185C194.863 19.0859 194.607 19.949 194.191 21.0833C193.349 23.5252 192.597 26.0442 191.771 28.4966C191.298 29.9032 190.912 31.3316 190.356 32.7141C189.141 32.7326 187.924 32.7291 186.709 32.7036C185.878 29.2641 184.484 25.4361 183.52 21.8799C182.524 25.5177 181.432 29.1287 180.246 32.7095C179.072 32.7475 177.84 32.7254 176.66 32.7217C176.43 31.5287 175.571 29.3298 175.19 28.0525C174.216 24.7854 172.815 21.1384 171.983 17.8689Z" fill="white"/>
<path fill-rule="evenodd" clip-rule="evenodd" d="M92.8344 19.3738C91.6256 18.1652 89.3333 17.4085 87.6381 17.6918C82.5853 18.176 80.6221 21.6139 80.9871 26.4399C81.5143 33.4102 90.1665 34.996 94.5891 30.4779C94.2211 30.0808 93.8803 29.7111 93.5327 29.2944C92.5983 28.3935 92.1561 28.7127 91.5424 29.1558C91.2586 29.3607 90.9382 29.5921 90.5154 29.7415C87.3042 30.8769 85.1643 29.3419 84.8495 26.0015L90.3019 26.0094C90.5529 26.0091 90.8294 26.02 91.1181 26.0313C92.792 26.097 94.8721 26.1787 94.726 24.195C94.5931 22.3885 94.2013 20.6753 92.8344 19.3738ZM87.6487 20.4442C87.6121 20.4456 87.5755 20.448 87.539 20.4512C85.6974 21.0459 85.1791 21.8801 84.9146 23.7425L88.6611 23.7599L91.1173 23.7592C91.0467 21.415 90.1036 20.3332 87.6487 20.4442Z" fill="white"/>
<path d="M66.0241 11.7661L82.7887 11.7724L82.8001 15.1352L76.57 15.1502C76.5977 18.9811 76.6033 22.8121 76.587 26.643L76.5854 32.7223L72.2773 32.7684L72.2674 15.1162C70.1826 15.1024 68.0977 15.1121 66.0131 15.1454C65.9876 14.0664 66.0193 12.855 66.0241 11.7661Z" fill="white"/>
<path d="M148.347 17.6916C151.195 17.4999 153.317 19.2461 153.709 22.0304C153.929 23.5903 153.843 25.2223 153.837 26.7995L153.828 32.7101C152.491 32.7315 151.154 32.7349 149.815 32.7202L149.823 26.378C149.825 24.2211 150.427 20.2883 147.238 20.7301C146.303 20.8595 145.898 21.0484 145.146 21.544L144.39 22.0695L144.396 32.7641L140.544 32.7448C140.411 28.4468 140.391 22.2223 140.547 17.8933C142.706 17.9389 143.81 17.1881 144.252 19.7002C145.776 18.3401 146.297 17.8972 148.347 17.6916Z" fill="white"/>
<path d="M100.954 20.4887C102.479 18.0937 103.75 17.1773 106.685 18.0362C106.232 21.1304 106.703 21.7202 103.662 21.4092C102.58 21.2985 101.286 22.817 101.322 23.8413C101.23 26.7085 101.247 29.8524 101.288 32.7177C100.683 32.7265 97.8081 32.8239 97.3998 32.6244C97.2742 32.316 97.2263 18.5543 97.4148 17.9657C97.7812 17.875 99.0536 17.7828 99.4629 17.7832C100.956 17.7845 100.871 19.4182 100.954 20.4887Z" fill="white"/>
<path d="M134.378 17.9067C135.243 17.889 136.168 17.9069 137.038 17.9079C137.122 22.7887 137.068 27.8246 137.072 32.7182L135.968 32.7339L133.14 32.758L133.129 17.95L134.378 17.9067Z" fill="white"/>
<path d="M134.695 11.1559C135.961 10.9353 137.175 11.7569 137.436 13.0119C137.698 14.267 136.913 15.5026 135.663 15.8036C134.819 16.007 133.93 15.7355 133.345 15.0951C132.759 14.4547 132.569 13.5471 132.851 12.7272C133.131 11.9072 133.838 11.305 134.695 11.1559Z" fill="white"/>
</svg>
